# xmcd CD database file
#
# Track frame offsets:
#	150
#	23948
#	34788
#	52365
#	69356
#	89408
#	107308
#	119105
#	149566
#
# Disc length: 4531 seconds
#
# Revision: 0
# Processed by: cddbd v1.5PL3 Copyright (c) Steve Scherf et al.
# Submitted via: CDex 1.50beta10
#
DISCID=8411b109
DTITLE=FRANK SINATRA - DUESTS
DYEAR=2004
DGENRE=Jazz
TTITLE0=FRANK SINATRA-DUESTS 2-CHRISSLE HYNDE-LUCK A LADY
TTITLE1=FRANK SINATRA-DUESTS 2-WILLIE NELSON-A FOGGY DAY
TTITLE2=FRANK SINATRA-DUESTS 2-STEVE LAWRENCE&EYDIE GORME-WHERE OR WHEN
TTITLE3=FRANK SINATRA-DUESTS 2-LENA HORNE-EMBRACEABLE YOU
TTITLE4=FRANK SINATRA-DUESTS 2-JIMMY BUFFETT-MACK THE KNIFE
TTITLE5=FRANK SINATRA-DUESTS 2-LORRIE MORGAN-HOW DO YOU KEEP THE MUSIC PLYING
TTITLE6=FRANK SINATRA-DUESTS 2-FRANK SINATR JR-MY KIND OF TOWN
TTITLE7=FRANK SINATRA-DUESTS 2-NEIL DIAMOND-THE HOUSE I LIVE IN
TTITLE8=Data Track
EXTD=YEAR: 2004
EXTT0=
EXTT1=
EXTT2=
EXTT3=
EXTT4=
EXTT5=
EXTT6=
EXTT7=
EXTT8=
PLAYORDER=
